/* XPM */
static char *_96_o[] = {
/* columns rows colors chars-per-pixel */
"17 33 256 2 ",
"   c black",
".  c #010101",
"X  c #020202",
"o  c gray1",
"O  c #040404",
"+  c gray2",
"@  c #060606",
"#  c #070707",
"$  c gray3",
"%  c #090909",
"&  c #0B0B0B",
"*  c #0C0C0C",
"=  c gray5",
"-  c #0E0E0E",
";  c gray6",
":  c #101010",
">  c #111111",
",  c gray7",
"<  c #131313",
"1  c gray8",
"2  c #151515",
"3  c #161616",
"4  c gray9",
"5  c #181818",
"6  c #191919",
"7  c gray10",
"8  c #1B1B1B",
"9  c gray11",
"0  c #1E1E1E",
"q  c gray12",
"w  c #202020",
"e  c gray13",
"r  c #222222",
"t  c #232323",
"y  c gray14",
"u  c #252525",
"i  c gray15",
"p  c #272727",
"a  c #282828",
"s  c gray16",
"d  c #2A2A2A",
"f  c gray17",
"g  c #2C2C2C",
"h  c #2D2D2D",
"j  c gray18",
"k  c #2F2F2F",
"l  c gray19",
"z  c #323232",
"x  c gray20",
"c  c #343434",
"v  c #353535",
"b  c gray21",
"n  c #373737",
"m  c gray22",
"M  c #393939",
"N  c #3A3A3A",
"B  c gray23",
"V  c #3C3C3C",
"C  c gray24",
"Z  c #3E3E3E",
"A  c #3F3F3F",
"S  c gray25",
"D  c #414141",
"F  c gray26",
"G  c #434343",
"H  c #444444",
"J  c #464646",
"K  c gray28",
"L  c #484848",
"P  c #494949",
"I  c gray29",
"U  c #4B4B4B",
"Y  c #4C4C4C",
"T  c gray30",
"R  c #4E4E4E",
"E  c gray31",
"W  c #505050",
"Q  c #515151",
"!  c gray32",
"~  c #535353",
"^  c gray33",
"/  c #555555",
"(  c #565656",
")  c gray34",
"_  c gray35",
"`  c #5A5A5A",
"'  c #5B5B5B",
"]  c gray36",
"[  c #5D5D5D",
"{  c gray37",
"}  c #5F5F5F",
"|  c #606060",
" . c gray38",
".. c #626262",
"X. c gray39",
"o. c #646464",
"O. c #656565",
"+. c gray40",
"@. c #676767",
"#. c #686868",
"$. c DimGray",
"%. c #6A6A6A",
"&. c gray42",
"*. c #6D6D6D",
"=. c gray43",
"-. c #6F6F6F",
";. c gray44",
":. c #717171",
">. c #727272",
",. c gray45",
"<. c #747474",
"1. c gray46",
"2. c #767676",
"3. c #777777",
"4. c gray47",
"5. c #797979",
"6. c gray48",
"7. c #7B7B7B",
"8. c #7C7C7C",
"9. c gray49",
"0. c #7E7E7E",
"q. c gray50",
"w. c #818181",
"e. c gray51",
"r. c #838383",
"t. c #848484",
"y. c gray52",
"u. c #868686",
"i. c gray53",
"p. c #888888",
"a. c #898989",
"s. c gray54",
"d. c #8B8B8B",
"f. c gray55",
"g. c #8D8D8D",
"h. c #8E8E8E",
"j. c gray56",
"k. c #909090",
"l. c gray57",
"z. c #929292",
"x. c gray58",
"c. c #959595",
"v. c gray59",
"b. c #979797",
"n. c #989898",
"m. c gray60",
"M. c #9A9A9A",
"N. c #9B9B9B",
"B. c gray61",
"V. c #9D9D9D",
"C. c gray62",
"Z. c #9F9F9F",
"A. c #A0A0A0",
"S. c gray63",
"D. c #A2A2A2",
"F. c gray64",
"G. c #A4A4A4",
"H. c #A5A5A5",
"J. c gray65",
"K. c gray66",
"L. c #A9A9A9",
"P. c #AAAAAA",
"I. c gray67",
"U. c #ACACAC",
"Y. c gray68",
"T. c #AEAEAE",
"R. c #AFAFAF",
"E. c gray69",
"W. c #B1B1B1",
"Q. c #B2B2B2",
"!. c gray70",
"~. c #B4B4B4",
"^. c gray71",
"/. c #B6B6B6",
"(. c #B7B7B7",
"). c gray72",
"_. c #B9B9B9",
"`. c #BBBBBB",
"'. c #BCBCBC",
"]. c gray74",
"[. c gray",
"{. c gray75",
"}. c #C0C0C0",
"|. c #C1C1C1",
" X c gray76",
".X c #C3C3C3",
"XX c gray77",
"oX c #C5C5C5",
"OX c #C6C6C6",
"+X c gray78",
"@X c #C8C8C8",
"#X c gray79",
"$X c #CACACA",
"%X c #CBCBCB",
"&X c gray80",
"*X c #CDCDCD",
"=X c gray81",
"-X c #D0D0D0",
";X c gray82",
":X c #D2D2D2",
">X c LightGray",
",X c gray83",
"<X c #D5D5D5",
"1X c gray84",
"2X c #D7D7D7",
"3X c #D8D8D8",
"4X c gray85",
"5X c #DADADA",
"6X c gray86",
"7X c gainsboro",
"8X c #DDDDDD",
"9X c gray87",
"0X c #DFDFDF",
"qX c gray88",
"wX c #E1E1E1",
"eX c gray89",
"rX c #E4E4E4",
"tX c gray90",
"yX c #E6E6E6",
"uX c #E7E7E7",
"iX c gray91",
"pX c #E9E9E9",
"aX c #EAEAEA",
"sX c gray92",
"dX c #ECECEC",
"fX c gray93",
"gX c #EEEEEE",
"hX c #EFEFEF",
"jX c gray94",
"kX c #F1F1F1",
"lX c gray95",
"zX c #F3F3F3",
"xX c #F4F4F4",
"cX c #F6F6F6",
"vX c gray97",
"bX c #F8F8F8",
"nX c #F9F9F9",
"mX c gray98",
"MX c #FBFBFB",
"NX c gray99",
"BX c #FDFDFD",
"VX c #FEFEFE",
"CX c white",
"ZX c white",
"AX c white",
"SX c white",
"DX c white",
"FX c white",
"GX c white",
"HX c white",
"JX c white",
"KX c white",
"LX c white",
"PX c white",
"IX c white",
"UX c white",
/* pixels */
"                                  ",
"                                  ",
"                                  ",
"                                  ",
"                                  ",
"            r.t.X                 ",
"          i FXUX@X7               ",
"          XXUXUXUXvXY             ",
"        + i.BXUXUXUXIXt.          ",
"            > s.CXUXUX#.          ",
"                < h.[..           ",
"                                  ",
"                                  ",
"                                  ",
"                                  ",
"                                  ",
"                                  ",
"                                  ",
"                                  ",
"                                  ",
"                                  ",
"                                  ",
"                                  ",
"                                  ",
"                                  ",
"                                  ",
"                                  ",
"                                  ",
"                                  ",
"                                  ",
"                                  ",
"                                  ",
"                                  "
};
