/* XPM */
static char * food_xpm[] = {
"32 32 737 2",
"  	c None",
". 	c #A68860",
"+ 	c #75663C",
"@ 	c #6E5B28",
"# 	c #6D562A",
"$ 	c #E1A1A3",
"% 	c #E7A5A0",
"& 	c #DCA6A3",
"* 	c #D8A6A6",
"= 	c #D9A1A5",
"- 	c #E3A8AD",
"; 	c #E6ABAF",
"> 	c #E8ADB0",
", 	c #E5AAAB",
"' 	c #D8A3A5",
") 	c #6C5023",
"! 	c #AE816E",
"~ 	c #F4AEA7",
"{ 	c #F0A3A1",
"] 	c #EDA1A0",
"^ 	c #ECAB9D",
"/ 	c #E7B08D",
"( 	c #D49697",
"_ 	c #E79FA3",
": 	c #EAA7AD",
"< 	c #EEB3B8",
"[ 	c #F6BEBD",
"} 	c #F3AEAF",
"| 	c #F19E99",
"1 	c #E77D7A",
"2 	c #D57075",
"3 	c #CB8385",
"4 	c #F29898",
"5 	c #F09C9C",
"6 	c #976D62",
"7 	c #D89887",
"8 	c #EFA588",
"9 	c #DC8E77",
"0 	c #DEBE8E",
"a 	c #D48C81",
"b 	c #EAACA6",
"c 	c #F4AAA8",
"d 	c #F6B2B0",
"e 	c #F4B8B8",
"f 	c #EDABAD",
"g 	c #E79293",
"h 	c #DA6469",
"i 	c #E05E58",
"j 	c #DB6456",
"k 	c #C6484E",
"l 	c #C45F63",
"m 	c #F9AEA4",
"n 	c #FAB0A5",
"o 	c #F7B8AC",
"p 	c #EFBCA5",
"q 	c #8C6B43",
"r 	c #D49F6B",
"s 	c #D9A784",
"t 	c #E6AF9E",
"u 	c #F1B4B5",
"v 	c #F5B6B8",
"w 	c #F8C1BF",
"x 	c #F9BDB8",
"y 	c #F3A9A6",
"z 	c #E57D82",
"A 	c #DB696D",
"B 	c #C84A55",
"C 	c #D25A59",
"D 	c #CC494B",
"E 	c #BD3E48",
"F 	c #B63F46",
"G 	c #B35458",
"H 	c #F8B2AA",
"I 	c #F1A6A1",
"J 	c #EFACA6",
"K 	c #F2B3A6",
"L 	c #F1A497",
"M 	c #F7B1AB",
"N 	c #F9AFB3",
"O 	c #F6AEB2",
"P 	c #F8B5B6",
"Q 	c #F1A4A7",
"R 	c #F19697",
"S 	c #EC7A79",
"T 	c #E57768",
"U 	c #E2715E",
"V 	c #DA6259",
"W 	c #D45253",
"X 	c #C94E4E",
"Y 	c #B93941",
"Z 	c #BC4944",
"` 	c #B4333C",
" .	c #B84243",
"..	c #A73841",
"+.	c #AE4B4F",
"@.	c #F8B2A5",
"#.	c #FBA099",
"$.	c #FBA6A0",
"%.	c #F8A69F",
"&.	c #FAA09B",
"*.	c #FBA39D",
"=.	c #FBB5A8",
"-.	c #F9A8A2",
";.	c #F69B93",
">.	c #F39590",
",.	c #EF9185",
"'.	c #E67072",
").	c #E5706D",
"!.	c #DA5F5E",
"~.	c #D45B57",
"{.	c #D56453",
"].	c #D5694D",
"^.	c #CA4D44",
"/.	c #C64541",
"(.	c #B43A3A",
"_.	c #A53234",
":.	c #A13B37",
"<.	c #A42F32",
"[.	c #A23237",
"}.	c #A33A3E",
"|.	c #A06160",
"1.	c #F6AA9F",
"2.	c #FA998E",
"3.	c #F9978D",
"4.	c #FAA996",
"5.	c #F99C8F",
"6.	c #F7938D",
"7.	c #F8A28F",
"8.	c #F28F85",
"9.	c #EE7E6D",
"0.	c #EB7D68",
"a.	c #E67965",
"b.	c #DF665C",
"c.	c #DE675E",
"d.	c #DB6960",
"e.	c #D5745F",
"f.	c #CA5450",
"g.	c #C64947",
"h.	c #C84F3C",
"i.	c #CD583B",
"j.	c #BE4238",
"k.	c #B83B35",
"l.	c #AC3B35",
"m.	c #A02F31",
"n.	c #A02C31",
"o.	c #A43537",
"p.	c #982F36",
"q.	c #92393F",
"r.	c #B78580",
"s.	c #F0A59F",
"t.	c #F59B84",
"u.	c #F4887A",
"v.	c #F7A082",
"w.	c #F6947D",
"x.	c #F28F7A",
"y.	c #F18875",
"z.	c #EF8C66",
"A.	c #E87A5C",
"B.	c #E4815E",
"C.	c #DD614C",
"D.	c #DD6E53",
"E.	c #D5594F",
"F.	c #CE5A4B",
"G.	c #CA5E4D",
"H.	c #C65344",
"I.	c #BC3F40",
"J.	c #B43137",
"K.	c #B0332E",
"L.	c #C05836",
"M.	c #BE4934",
"N.	c #B93F34",
"O.	c #AD342E",
"P.	c #A32E2C",
"Q.	c #9F3430",
"R.	c #A13634",
"S.	c #993236",
"T.	c #8D2F34",
"U.	c #AA6B65",
"V.	c #F1A392",
"W.	c #F0896A",
"X.	c #EF9E76",
"Y.	c #F0906E",
"Z.	c #EE8B6B",
"`.	c #EA7F5F",
" +	c #E37551",
".+	c #E0854F",
"++	c #DA6443",
"@+	c #D1633F",
"#+	c #CE553A",
"$+	c #D36242",
"%+	c #C6483D",
"&+	c #C9573F",
"*+	c #C1523C",
"=+	c #BC4536",
"-+	c #B43634",
";+	c #B13831",
">+	c #AD3B2D",
",+	c #A72E26",
"'+	c #B55332",
")+	c #B33F2D",
"!+	c #AC312A",
"~+	c #A32825",
"{+	c #971E20",
"]+	c #8D161F",
"^+	c #972D32",
"/+	c #842B30",
"(+	c #964447",
"_+	c #EF957D",
":+	c #EC8169",
"<+	c #E98B64",
"[+	c #ED936A",
"}+	c #E57753",
"|+	c #E37B46",
"1+	c #D96739",
"2+	c #D56A33",
"3+	c #CE5234",
"4+	c #C74B31",
"5+	c #C64E30",
"6+	c #C74B35",
"7+	c #BF4332",
"8+	c #C04934",
"9+	c #C05B36",
"0+	c #B43A2C",
"a+	c #AE3429",
"b+	c #A82F24",
"c+	c #AB3926",
"d+	c #A83021",
"e+	c #B14229",
"f+	c #B55530",
"g+	c #B34B2D",
"h+	c #A93A2B",
"i+	c #9D2825",
"j+	c #981F21",
"k+	c #92282E",
"l+	c #8B3036",
"m+	c #8A383E",
"n+	c #B37B77",
"o+	c #ECACA3",
"p+	c #EC9A76",
"q+	c #E77D5F",
"r+	c #E18C56",
"s+	c #E67C53",
"t+	c #DE683E",
"u+	c #D77033",
"v+	c #CE5C2D",
"w+	c #C96B2E",
"x+	c #BF4325",
"y+	c #C34E28",
"z+	c #BB4522",
"A+	c #BE4127",
"B+	c #BA522E",
"C+	c #B7472A",
"D+	c #B64023",
"E+	c #AE3322",
"F+	c #AF3127",
"G+	c #A2251F",
"H+	c #A53623",
"I+	c #A83A25",
"J+	c #AC4926",
"K+	c #AB3D27",
"L+	c #B85930",
"M+	c #A92F29",
"N+	c #A13029",
"O+	c #982122",
"P+	c #8D262D",
"Q+	c #96413D",
"R+	c #8F363D",
"S+	c #B0837F",
"T+	c #EDACA3",
"U+	c #EA9F77",
"V+	c #E37C56",
"W+	c #E07F52",
"X+	c #DF7F53",
"Y+	c #D86F35",
"Z+	c #CC762E",
"`+	c #C25223",
" @	c #B95022",
".@	c #B93F1E",
"+@	c #B9471E",
"@@	c #B6531E",
"#@	c #B4491E",
"$@	c #B0401F",
"%@	c #AC361B",
"&@	c #AF331E",
"*@	c #A92A1E",
"=@	c #A72C1F",
"-@	c #A32B1F",
";@	c #9D3823",
">@	c #9D271E",
",@	c #A63922",
"'@	c #AF4027",
")@	c #B24527",
"!@	c #AD3629",
"~@	c #A83028",
"{@	c #961E23",
"]@	c #93272B",
"^@	c #8B2A2F",
"/@	c #9A3D41",
"(@	c #BB857F",
"_@	c #EDAE9F",
":@	c #E99578",
"<@	c #E48359",
"[@	c #E08C5F",
"}@	c #DE6746",
"|@	c #D46737",
"1@	c #C87231",
"2@	c #BF5220",
"3@	c #BA6026",
"4@	c #BA4422",
"5@	c #B64924",
"6@	c #AE4519",
"7@	c #AE3618",
"8@	c #B5441D",
"9@	c #B54A21",
"0@	c #AE381A",
"a@	c #A62918",
"b@	c #A84821",
"c@	c #A63521",
"d@	c #9F2E1D",
"e@	c #9C241D",
"f@	c #A13422",
"g@	c #A14023",
"h@	c #B25827",
"i@	c #B2582C",
"j@	c #AC3229",
"k@	c #A4342A",
"l@	c #9E3B34",
"m@	c #913735",
"n@	c #AD5C58",
"o@	c #B77572",
"p@	c #ECB5A5",
"q@	c #E99177",
"r@	c #E58867",
"s@	c #E2785B",
"t@	c #DB7244",
"u@	c #CF6234",
"v@	c #C9612E",
"w@	c #C6602B",
"x@	c #BC5324",
"y@	c #B64324",
"z@	c #B44323",
"A@	c #B24022",
"B@	c #AC2F1B",
"C@	c #B3431A",
"D@	c #B34618",
"E@	c #AA3316",
"F@	c #AB3318",
"G@	c #A83D1B",
"H@	c #A7321F",
"I@	c #A42C1E",
"J@	c #AA3823",
"K@	c #A83321",
"L@	c #A52E1E",
"M@	c #B14A23",
"N@	c #B44827",
"O@	c #AF362B",
"P@	c #A3373D",
"Q@	c #A64944",
"R@	c #AF5B58",
"S@	c #B77371",
"T@	c #EAB5A3",
"U@	c #E7A07F",
"V@	c #E78B6C",
"W@	c #E28361",
"X@	c #DE7B4B",
"Y@	c #D07A42",
"Z@	c #C85D31",
"`@	c #C35628",
" #	c #C15528",
".#	c #B95A2B",
"+#	c #B55526",
"@#	c #B75323",
"##	c #B3461E",
"$#	c #B14516",
"%#	c #B2431D",
"&#	c #AD3218",
"*#	c #A73518",
"=#	c #AD451B",
"-#	c #A92E1E",
";#	c #B54529",
">#	c #AD3B1F",
",#	c #AD3922",
"'#	c #AD4421",
")#	c #B74924",
"!#	c #BA522B",
"~#	c #B53C36",
"{#	c #B04D46",
"]#	c #AC4B46",
"^#	c #AC4F51",
"/#	c #C28682",
"(#	c #F0C7B9",
"_#	c #E8A685",
":#	c #E79571",
"<#	c #E19161",
"[#	c #DE834F",
"}#	c #D87F44",
"|#	c #CC643A",
"1#	c #C56636",
"2#	c #C3562F",
"3#	c #C2562E",
"4#	c #BA5227",
"5#	c #BC6C2E",
"6#	c #BB622A",
"7#	c #B45925",
"8#	c #B85924",
"9#	c #B4441C",
"0#	c #AF581F",
"a#	c #AC421A",
"b#	c #B03320",
"c#	c #B74427",
"d#	c #B23922",
"e#	c #B44027",
"f#	c #B03824",
"g#	c #B4522A",
"h#	c #B84825",
"i#	c #C46B33",
"j#	c #C0503E",
"k#	c #B44343",
"l#	c #AF3D40",
"m#	c #B9615F",
"n#	c #C7908D",
"o#	c #E9AE8D",
"p#	c #E59073",
"q#	c #E38660",
"r#	c #DB8852",
"s#	c #DA7D47",
"t#	c #D26B3F",
"u#	c #C75036",
"v#	c #C37339",
"w#	c #C86835",
"x#	c #C66330",
"y#	c #C86534",
"z#	c #C57332",
"A#	c #BF5A2B",
"B#	c #BD5A29",
"C#	c #BE6027",
"D#	c #B95423",
"E#	c #B94923",
"F#	c #AD2C20",
"G#	c #B34425",
"H#	c #B54129",
"I#	c #B03723",
"J#	c #B8572D",
"K#	c #B73F2A",
"L#	c #B9442B",
"M#	c #C36836",
"N#	c #C96542",
"O#	c #BB5146",
"P#	c #BD4C47",
"Q#	c #C37370",
"R#	c #C58C87",
"S#	c #ECB79C",
"T#	c #E9A381",
"U#	c #E38969",
"V#	c #DD8B58",
"W#	c #DA834D",
"X#	c #D56845",
"Y#	c #CD683C",
"Z#	c #C34D35",
"`#	c #C86B39",
" $	c #CF7A3D",
".$	c #CC6737",
"+$	c #CB6C34",
"@$	c #C66131",
"#$	c #BA552B",
"$$	c #BD672C",
"%$	c #BC4B28",
"&$	c #B84427",
"*$	c #B23729",
"=$	c #B8492C",
"-$	c #B6482C",
";$	c #B95530",
">$	c #BE5B30",
",$	c #C24934",
"'$	c #C86436",
")$	c #CC7239",
"!$	c #CE683E",
"~$	c #C65949",
"{$	c #CA6C59",
"]$	c #C97F7A",
"^$	c #CF938E",
"/$	c #EDC1A7",
"($	c #EBA188",
"_$	c #E68B6E",
":$	c #DF8756",
"<$	c #DA8955",
"[$	c #DA7A48",
"}$	c #D58C48",
"|$	c #CF6940",
"1$	c #CF613C",
"2$	c #CF6C35",
"3$	c #D06837",
"4$	c #CB6236",
"5$	c #C96234",
"6$	c #BE492F",
"7$	c #BE5B2E",
"8$	c #C3592E",
"9$	c #BF6E33",
"0$	c #B85830",
"a$	c #BD4730",
"b$	c #B93D2E",
"c$	c #BF5B31",
"d$	c #C25333",
"e$	c #C14B34",
"f$	c #C96636",
"g$	c #CF7B3B",
"h$	c #D16C3F",
"i$	c #D36C50",
"j$	c #CA635B",
"k$	c #D0948D",
"l$	c #EBB397",
"m$	c #E9AB80",
"n$	c #E2915E",
"o$	c #DA764F",
"p$	c #D87349",
"q$	c #D88F4B",
"r$	c #D5693B",
"s$	c #D8703E",
"t$	c #D2783E",
"u$	c #D5763A",
"v$	c #CE673A",
"w$	c #CA7438",
"x$	c #C85A32",
"y$	c #BE3C2F",
"z$	c #C66733",
"A$	c #C96D33",
"B$	c #BE432E",
"C$	c #BE4D32",
"D$	c #C35A35",
"E$	c #C66A37",
"F$	c #C65E34",
"G$	c #C56A39",
"H$	c #CC6836",
"I$	c #CE7339",
"J$	c #D06943",
"K$	c #D46C51",
"L$	c #D47668",
"M$	c #D3A29C",
"N$	c #EEBB9D",
"O$	c #EBAA8A",
"P$	c #E59D71",
"Q$	c #E18659",
"R$	c #D86647",
"S$	c #D6884B",
"T$	c #D87E43",
"U$	c #D5803F",
"V$	c #D76A3A",
"W$	c #D97A3D",
"X$	c #D67C3A",
"Y$	c #CE7535",
"Z$	c #CA7535",
"`$	c #C95A31",
" %	c #C67C35",
".%	c #CC6B31",
"+%	c #CA5D36",
"@%	c #CB5A36",
"#%	c #CB6235",
"$%	c #CD5D35",
"%%	c #CC6238",
"&%	c #C96737",
"*%	c #CC7739",
"=%	c #D37C3F",
"-%	c #D17B43",
";%	c #D67258",
">%	c #D68A81",
",%	c #D9ACA6",
"'%	c #EBAD90",
")%	c #E5A178",
"!%	c #E09567",
"~%	c #DD8254",
"{%	c #D55E43",
"]%	c #DA7D45",
"^%	c #D86F3D",
"/%	c #DB7C41",
"(%	c #DA7341",
"_%	c #D97D3D",
":%	c #D5783A",
"<%	c #D07839",
"[%	c #CE7131",
"}%	c #CF7434",
"|%	c #CF7232",
"1%	c #CB5C32",
"2%	c #C65E33",
"3%	c #CA6D35",
"4%	c #CC6E39",
"5%	c #CA6938",
"6%	c #CF7539",
"7%	c #D17039",
"8%	c #D77E41",
"9%	c #CF6D40",
"0%	c #DC7A64",
"a%	c #D4978E",
"b%	c #E9B08F",
"c%	c #EAA080",
"d%	c #E59A74",
"e%	c #DF915D",
"f%	c #D97148",
"g%	c #D9854A",
"h%	c #D98547",
"i%	c #D87D3D",
"j%	c #D9833E",
"k%	c #D6773C",
"l%	c #D56E38",
"m%	c #D06935",
"n%	c #CF6D32",
"o%	c #CD6134",
"p%	c #CE6933",
"q%	c #CB7337",
"r%	c #CB5E33",
"s%	c #CE6934",
"t%	c #CF6434",
"u%	c #CE5D35",
"v%	c #CE713A",
"w%	c #D46D3B",
"x%	c #D07E43",
"y%	c #CC6E49",
"z%	c #D48171",
"A%	c #DBAEA4",
"B%	c #E5A885",
"C%	c #E5A37A",
"D%	c #E58C66",
"E%	c #E08550",
"F%	c #DB7F4A",
"G%	c #DE7C43",
"H%	c #D97A3F",
"I%	c #D5813D",
"J%	c #D5833E",
"K%	c #D8813D",
"L%	c #D47838",
"M%	c #D0853A",
"N%	c #CE8137",
"O%	c #CF7D38",
"P%	c #CE7337",
"Q%	c #C97433",
"R%	c #CD7B38",
"S%	c #CE7436",
"T%	c #CB6A37",
"U%	c #CF6938",
"V%	c #D3813D",
"W%	c #C9733A",
"X%	c #CA6950",
"Y%	c #D38371",
"Z%	c #E99D79",
"`%	c #E09266",
" &	c #DF8355",
".&	c #DF884F",
"+&	c #DA7D42",
"@&	c #D47E3B",
"#&	c #D87E3D",
"$&	c #D9803B",
"%&	c #D6863B",
"&&	c #D27E34",
"*&	c #D17A33",
"=&	c #CE6E33",
"-&	c #CF7733",
";&	c #C8782F",
">&	c #C8742E",
",&	c #CC7333",
"'&	c #CC7232",
")&	c #D26137",
"!&	c #D07036",
"~&	c #CE8538",
"{&	c #BA693B",
"]&	c #C27056",
"^&	c #E2997D",
"/&	c #DB9061",
"(&	c #DB865B",
"_&	c #D77C45",
":&	c #D4783C",
"<&	c #D1843D",
"[&	c #D4833C",
"}&	c #D7873A",
"|&	c #D38A3A",
"1&	c #CF7C36",
"2&	c #D48033",
"3&	c #CE7931",
"4&	c #CA7330",
"5&	c #CA742D",
"6&	c #CE7F34",
"7&	c #CC6C2F",
"8&	c #CA5830",
"9&	c #C96D35",
"0&	c #CA8236",
"a&	c #BE7330",
"b&	c #B86C49",
"c&	c #DA9271",
"d&	c #D38852",
"e&	c #D27846",
"f&	c #D18141",
"g&	c #D07F40",
"h&	c #D1813D",
"i&	c #CE7334",
"j&	c #CF8138",
"k&	c #CF7735",
"l&	c #CF8134",
"m&	c #C97C34",
"n&	c #C9752D",
"o&	c #CB8231",
"p&	c #CD742F",
"q&	c #C2652D",
"r&	c #C3652F",
"s&	c #C36B2F",
"t&	c #C16A2F",
"u&	c #B9623A",
"v&	c #C87646",
"w&	c #C36E3A",
"x&	c #C16831",
"y&	c #C56A34",
"z&	c #C67535",
"A&	c #C37C36",
"B&	c #C2732E",
"C&	c #C26E2D",
"D&	c #C36E2C",
"E&	c #C3782A",
"F&	c #C67029",
"G&	c #C47230",
"H&	c #BB6D2C",
"I&	c #B66326",
"J&	c #BA662F",
"K&	c #B66034",
"L&	c #93572A",
"M&	c #915421",
"N&	c #985D21",
"O&	c #A05C27",
"P&	c #AE6228",
"Q&	c #B1622A",
"R&	c #B46829",
"S&	c #B57220",
"T&	c #B26D20",
"U&	c #A86424",
"V&	c #9E5927",
"W&	c #9A6129",
"X&	c #573F21",
"Y&	c #4F391E",
"Z&	c #623E1F",
"`&	c #6E4620",
" *	c #714B22",
"          .                                                     ",
"          + @                                                   ",
"              #           $ % & * = - ; > , '                   ",
"                ) ! ~ { ] ^ / ( _ : < [ } | 1 2 3               ",
"              4 5 6 7 8 9 0 a b c d e f g h i j k l             ",
"            m n o p q r s t u v w x y z A B C D E F G           ",
"          H I J K L M N O P Q R S T U V W X Y Z `  ...+.        ",
"      @.#.$.%.&.*.=.-.;.>.,.'.).!.~.{.].^./.(._.:.<.[.}.|.      ",
"    1.2.3.4.5.6.7.8.9.0.a.b.c.d.e.f.g.h.i.j.k.l.m.n.o.p.q.r.    ",
"  s.t.u.v.w.x.y.z.A.B.C.D.E.F.G.H.I.J.K.L.M.N.O.P.Q.R.S.T.U.    ",
"  V.W.X.Y.Z.`. +.+++@+#+$+%+&+*+=+-+;+>+,+'+)+!+~+{+]+^+/+(+    ",
"  _+:+<+[+}+|+1+2+3+4+5+6+7+8+9+0+a+b+c+d+e+f+g+h+i+j+k+l+m+n+  ",
"o+p+q+r+s+t+u+v+w+x+y+z+A+B+C+D+E+F+G+H+I+J+K+L+M+N+O+P+Q+R+S+  ",
"T+U+V+W+X+Y+Z+`+ @.@+@@@#@$@%@&@*@=@-@;@>@,@'@)@!@~@{@]@^@/@(@  ",
"_@:@<@[@}@|@1@2@3@4@5@6@7@8@9@0@a@b@c@d@e@f@g@h@i@j@k@l@m@n@o@  ",
"p@q@r@s@t@u@v@w@x@y@z@A@B@C@D@E@F@G@H@I@J@K@L@M@N@O@M+P@Q@R@S@  ",
"T@U@V@W@X@Y@Z@`@ #.#+#@###$#%#&#*#=#-#;#>#,#-@'#)#!#~#{#]#^#/#  ",
"(#_#:#<#[#}#|#1#2#3#4#5#6#7#8#9#0#a#b#c#d#e#f#g#h#i#j#k#l#m#n#  ",
"  o#p#q#r#s#t#u#v#w#x#y#z#A#B#C#D#E#F#G#H#I#J#K#L#M#N#O#P#Q#R#  ",
"  S#T#U#V#W#X#Y#Z#`# $.$+$@$#$$$%$&$*$=$-$;$>$,$'$)$!$~${$]$^$  ",
"  /$($_$:$<$[$}$|$1$2$3$4$5$6$7$8$9$0$a$b$c$d$e$f$g$h$i$j$k$    ",
"    l$m$n$o$p$q$r$s$t$u$v$w$x$y$z$A$B$C$D$E$F$G$H$I$J$K$L$M$    ",
"    N$O$P$Q$R$S$T$U$V$W$X$Y$Z$`$ %.%+%@%#%$%%%&%*%=%-%;%>%,%    ",
"      '%)%!%~%{%]%^%/%(%_%:%<%[%}%|%1%2%3%4%5%6%7%8%9%0%a%      ",
"      b%c%d%e%f%g%h%i%j%k%l%m%n%o%p%q%r%s%t%u%v%w%x%y%z%A%      ",
"        B%C%D%E%F%G%H%I%J%K%L%M%N%O%P%Q%R%S%T%U%V%W%X%Y%        ",
"          Z%`% &.&+&@&#&$&%&&&*&=&-&;&>&,&'&)&!&~&{&]&          ",
"          ^&/&(&_&:&<&[&}&|&1&2&3&4&5&6&7&8&9&0&a&b&            ",
"            c&d&e&f&g&h&i&j&k&l&m&n&o&p&q&r&s&t&u&              ",
"                v&w&x&y&z&A&B&C&D&E&F&G&H&I&J&K&                ",
"                    L&M&N&O&P&Q&R&S&T&U&V&W&                    ",
"                          X&Y&Z&`& *                            "};
