/* XPM */
static char * player_xpm[] = {
"32 32 585 2",
"  	c None",
". 	c #F2A941",
"+ 	c #F3BF7B",
"@ 	c #F6D0A3",
"# 	c #F9E0BE",
"$ 	c #F8E2C4",
"% 	c #F8E2C3",
"& 	c #F9DFBE",
"* 	c #F3BF7C",
"= 	c #F0A840",
"- 	c #F2AE48",
"; 	c #F7CE92",
"> 	c #FCEDC7",
", 	c #FEF5DA",
"' 	c #FEF6DB",
") 	c #FEF6DC",
"! 	c #FEF7DC",
"~ 	c #FDF6DB",
"{ 	c #FCEDC9",
"] 	c #F7CF94",
"^ 	c #F1AC4B",
"/ 	c #F4BF6B",
"( 	c #FAE8B3",
"_ 	c #FDF0C3",
": 	c #FDF1C4",
"< 	c #FEF2C6",
"[ 	c #FEF3C7",
"} 	c #FEF3C8",
"| 	c #FDF1C5",
"1 	c #FCEFC3",
"2 	c #FCE7B4",
"3 	c #F3BF6E",
"4 	c #F0A539",
"5 	c #F5C876",
"6 	c #FCE8AC",
"7 	c #FCEBAF",
"8 	c #FDEDB1",
"9 	c #FDEEB4",
"0 	c #FDEFB6",
"a 	c #FDF0B8",
"b 	c #FEF1B9",
"c 	c #FDF1B8",
"d 	c #FDF1B9",
"e 	c #FDF0B7",
"f 	c #FDEFB5",
"g 	c #FDEFB4",
"h 	c #FCECB2",
"i 	c #FCEBB0",
"j 	c #FBE8AB",
"k 	c #F4C978",
"l 	c #EEA338",
"m 	c #F0A436",
"n 	c #F4C66A",
"o 	c #FAE498",
"p 	c #FBE79C",
"q 	c #FCE99F",
"r 	c #FDEBA4",
"s 	c #FCEDA6",
"t 	c #FDEEA9",
"u 	c #FEEFAC",
"v 	c #FDEFAD",
"w 	c #FDF0AF",
"x 	c #FDF0AE",
"y 	c #FDF0AD",
"z 	c #FDEFAC",
"A 	c #FDECA6",
"B 	c #FCEAA3",
"C 	c #FBE89F",
"D 	c #FBE69C",
"E 	c #FBE399",
"F 	c #F4C76D",
"G 	c #EFA539",
"H 	c #F3BB53",
"I 	c #FADC84",
"J 	c #FBE189",
"K 	c #FCE48E",
"L 	c #FCE793",
"M 	c #FDE998",
"N 	c #FDEA9B",
"O 	c #FEEC9F",
"P 	c #FDEDA2",
"Q 	c #FDEEA4",
"R 	c #FDEEA5",
"S 	c #FDEDA3",
"T 	c #FDECA0",
"U 	c #FCEB9C",
"V 	c #FDE898",
"W 	c #FBE48F",
"X 	c #FBE08A",
"Y 	c #FADB84",
"Z 	c #F4BC56",
"` 	c #EFAD3A",
" .	c #F9D26E",
"..	c #FADA77",
"+.	c #FBDF7E",
"@.	c #FCE383",
"#.	c #FDE689",
"$.	c #FDE88F",
"%.	c #FDEA94",
"&.	c #FDEB99",
"*.	c #FDED9C",
"=.	c #FDED9F",
"-.	c #FDEEA2",
";.	c #FDEEA0",
">.	c #FDEC9D",
",.	c #FDE994",
"'.	c #FDE88E",
").	c #FCE589",
"!.	c #FCE284",
"~.	c #FBDE7D",
"{.	c #F9D977",
"].	c #F7D16F",
"^.	c #F0AD3D",
"/.	c #EEA330",
"(.	c #F3BF50",
"_.	c #F8D265",
":.	c #FAD86D",
"<.	c #FBDD74",
"[.	c #FDE17B",
"}.	c #FDE481",
"|.	c #FCE787",
"1.	c #FDE98D",
"2.	c #FDEC99",
"3.	c #FDEE9E",
"4.	c #FDEEA1",
"5.	c #FDEE9F",
"6.	c #FEED9A",
"7.	c #FDEB95",
"8.	c #FDE688",
"9.	c #FCE482",
"0.	c #FDE17A",
"a.	c #FBDC74",
"b.	c #FAD76C",
"c.	c #F8D066",
"d.	c #F3BE52",
"e.	c #EDA232",
"f.	c #EEA933",
"g.	c #F5C552",
"h.	c #F8CF5C",
"i.	c #FAD664",
"j.	c #FBDB6B",
"k.	c #FDDF73",
"l.	c #FCE37A",
"m.	c #FCE481",
"n.	c #FEE789",
"o.	c #FDEA90",
"p.	c #FCEC98",
"q.	c #FCEE9E",
"r.	c #FDEFA4",
"s.	c #FDF0A6",
"t.	c #FDEC9A",
"u.	c #FDEA92",
"v.	c #FEE78C",
"w.	c #FDE583",
"x.	c #FCE27B",
"y.	c #FDDF74",
"z.	c #FBDA6C",
"A.	c #FAD464",
"B.	c #F8CD5B",
"C.	c #F4C453",
"D.	c #EDA735",
"E.	c #EA9E2C",
"F.	c #EFB13B",
"G.	c #F6C34A",
"H.	c #F9CC54",
"I.	c #FAD35C",
"J.	c #FBD965",
"K.	c #FCDD6D",
"L.	c #FCE174",
"M.	c #BDA459",
"N.	c #693A18",
"O.	c #9F8451",
"P.	c #F8E794",
"Q.	c #FCEE9D",
"R.	c #FDF0A7",
"S.	c #F9E797",
"T.	c #A18855",
"U.	c #683816",
"V.	c #BCA15B",
"W.	c #FDE176",
"X.	c #FBDD6F",
"Y.	c #FBD865",
"Z.	c #FBD35D",
"`.	c #F8CC53",
" +	c #F5C14A",
".+	c #EDAF3A",
"++	c #EC9D2F",
"@+	c #EBA02E",
"#+	c #EFB238",
"$+	c #F5BF42",
"%+	c #F8C94C",
"&+	c #FAD156",
"*+	c #FBD760",
"=+	c #FCDA67",
"-+	c #E6C765",
";+	c #78441C",
">+	c #8A5422",
",+	c #804C1E",
"'+	c #C5B06F",
")+	c #FBED9B",
"!+	c #FCEFA1",
"~+	c #FCEFA2",
"{+	c #FCED9D",
"]+	c #CAB474",
"^+	c #7F4A1D",
"/+	c #8A5421",
"(+	c #7A461D",
"_+	c #E5C665",
":+	c #FCDA68",
"<+	c #FBD660",
"[+	c #FAD056",
"}+	c #F8C84C",
"|+	c #F4BD42",
"1+	c #EEAF38",
"2+	c #E99E2E",
"3+	c #E9A02C",
"4+	c #F0AF34",
"5+	c #F5BC3D",
"6+	c #F9C647",
"7+	c #FACE50",
"8+	c #FCD45A",
"9+	c #FCD862",
"0+	c #C5A34F",
"a+	c #8E5622",
"b+	c #9B6226",
"c+	c #955D24",
"d+	c #A2814D",
"e+	c #FDEB96",
"f+	c #FCED9A",
"g+	c #FCED9B",
"h+	c #FCEA96",
"i+	c #A58652",
"j+	c #945C24",
"k+	c #9C6227",
"l+	c #905923",
"m+	c #C4A14E",
"n+	c #FCD764",
"o+	c #FCD25B",
"p+	c #FACD51",
"q+	c #F8C547",
"r+	c #F4B93C",
"s+	c #EEAC35",
"t+	c #E79E2E",
"u+	c #E8A02B",
"v+	c #F0AF33",
"w+	c #F5BA3B",
"x+	c #F9C142",
"y+	c #F9C447",
"z+	c #FAC64D",
"A+	c #FBCC56",
"B+	c #BC9343",
"C+	c #C09C59",
"D+	c #F9E284",
"E+	c #D9BF70",
"F+	c #8B592B",
"G+	c #FCE98D",
"H+	c #FCE990",
"I+	c #FCEA91",
"J+	c #FCE88E",
"K+	c #916636",
"L+	c #D6BA6F",
"M+	c #F9E185",
"N+	c #C4A15B",
"O+	c #B78D41",
"P+	c #FBCC57",
"Q+	c #FBC64E",
"R+	c #FAC246",
"S+	c #F9C042",
"T+	c #F5B83A",
"U+	c #EDAC32",
"V+	c #E79E2D",
"W+	c #E69F2A",
"X+	c #EFAC31",
"Y+	c #F5B435",
"Z+	c #F8B538",
"`+	c #F9B53B",
" @	c #F9B63E",
".@	c #FABA44",
"+@	c #B7873E",
"@@	c #F4CE66",
"#@	c #FCDD71",
"$@	c #FCE17A",
"%@	c #A9884F",
"&@	c #FBE684",
"*@	c #FCE686",
"=@	c #FCE586",
"-@	c #A1824C",
";@	c #FCE37D",
">@	c #FDDE73",
",@	c #F6D067",
"'@	c #B2833B",
")@	c #FABB47",
"!@	c #FAB63E",
"~@	c #F9B43B",
"{@	c #F8B337",
"]@	c #F3B134",
"^@	c #EDA931",
"/@	c #E69D2C",
"(@	c #E69D2A",
"_@	c #EEA82D",
":@	c #F5AB2E",
"<@	c #F7A92F",
"[@	c #F7A52F",
"}@	c #F7A531",
"|@	c #F8AA36",
"1@	c #F9BA50",
"2@	c #FBC450",
"3@	c #FBD563",
"4@	c #FCDF72",
"5@	c #FCE37E",
"6@	c #FCE37B",
"7@	c #FCE27E",
"8@	c #FCDF73",
"9@	c #FCD666",
"0@	c #FAC553",
"a@	c #F9BB51",
"b@	c #F8AA37",
"c@	c #F7A431",
"d@	c #F7A42F",
"e@	c #F6A82F",
"f@	c #F3A92E",
"g@	c #ECA52C",
"h@	c #E49A2B",
"i@	c #E49928",
"j@	c #EDA329",
"k@	c #F4A52A",
"l@	c #F6A02A",
"m@	c #F69927",
"n@	c #F59427",
"o@	c #F69B2C",
"p@	c #F7A836",
"q@	c #F9B945",
"r@	c #FBCC58",
"s@	c #FBDB69",
"t@	c #FCDE6F",
"u@	c #FCE074",
"v@	c #FCE073",
"w@	c #FCDE70",
"x@	c #FCDB6B",
"y@	c #FBCE5A",
"z@	c #F9BB46",
"A@	c #F8AA39",
"B@	c #F69B2D",
"C@	c #F59426",
"D@	c #F69727",
"E@	c #F59E29",
"F@	c #F3A229",
"G@	c #EBA02A",
"H@	c #E2972A",
"I@	c #E29426",
"J@	c #EB9D27",
"K@	c #F3A028",
"L@	c #F69A26",
"M@	c #F59023",
"N@	c #F38820",
"O@	c #F49125",
"P@	c #F6A230",
"Q@	c #F8B43D",
"R@	c #FAC64F",
"S@	c #FCDB67",
"T@	c #FCDC69",
"U@	c #FBDD6A",
"V@	c #FCDC6B",
"W@	c #FCDB69",
"X@	c #FCDB66",
"Y@	c #FBC851",
"Z@	c #F9B53F",
"`@	c #F59327",
" #	c #F48820",
".#	c #F58F23",
"+#	c #F59826",
"@#	c #F29E27",
"##	c #E99B27",
"$#	c #E29327",
"%#	c #E29126",
"&#	c #E79926",
"*#	c #F19E26",
"=#	c #F49A26",
"-#	c #F69224",
";#	c #F58E23",
">#	c #F59527",
",#	c #F19F2F",
"'#	c #F8B33C",
")#	c #FAC54B",
"!#	c #FBD45A",
"~#	c #FCD75F",
"{#	c #FBD761",
"]#	c #FBD862",
"^#	c #FBD861",
"/#	c #FBD45B",
"(#	c #FAC74D",
"_#	c #F9B53D",
":#	c #F3A131",
"<#	c #F59629",
"[#	c #F58D23",
"}#	c #F59123",
"|#	c #F39824",
"1#	c #F09B26",
"2#	c #E69827",
"3#	c #E09027",
"4#	c #E39526",
"5#	c #EE9C26",
"6#	c #F39D26",
"7#	c #F59A25",
"8#	c #F59A26",
"9#	c #F79F2C",
"0#	c #A57232",
"a#	c #EBAE3A",
"b#	c #FAC64A",
"c#	c #FBD155",
"d#	c #FBD358",
"e#	c #FAD459",
"f#	c #FAD55B",
"g#	c #FAD55A",
"h#	c #FBD459",
"i#	c #FBD359",
"j#	c #FBD255",
"k#	c #FBC84C",
"l#	c #EEB03C",
"m#	c #A26F30",
"n#	c #F69F2D",
"o#	c #F49925",
"p#	c #F49825",
"q#	c #F19B24",
"r#	c #EC9A25",
"s#	c #E19226",
"t#	c #DE8C26",
"u#	c #DD8E25",
"v#	c #E79825",
"w#	c #EF9E25",
"x#	c #F3A026",
"y#	c #F6A42A",
"z#	c #F7A92D",
"A#	c #E1A53F",
"B#	c #784E25",
"C#	c #BB9137",
"D#	c #EBC24D",
"E#	c #FCCF51",
"F#	c #FBD051",
"G#	c #FBD153",
"H#	c #FBD053",
"I#	c #FBD050",
"J#	c #EDC24E",
"K#	c #BD9439",
"L#	c #754B24",
"M#	c #E0A742",
"N#	c #F7A92E",
"O#	c #F5A328",
"P#	c #F39F26",
"Q#	c #EE9C25",
"R#	c #E59626",
"S#	c #DB8C25",
"T#	c #DA8924",
"U#	c #DD9126",
"V#	c #E89B25",
"W#	c #EEA227",
"X#	c #F3A82A",
"Y#	c #F6AF2E",
"Z#	c #F9B834",
"`#	c #E4B34B",
" $	c #8B6131",
".$	c #663417",
"+$	c #784F23",
"@$	c #906A2A",
"#$	c #A78139",
"$$	c #A8813B",
"%$	c #916B29",
"&$	c #774F23",
"*$	c #623117",
"=$	c #865C30",
"-$	c #E3B24B",
";$	c #F9B836",
">$	c #F2A72A",
",$	c #EEA027",
"'$	c #E79927",
")$	c #DC8E27",
"!$	c #D88726",
"~$	c #D68826",
"{$	c #DE9226",
"]$	c #E69D27",
"^$	c #EDA62A",
"/$	c #F3AE2D",
"($	c #F6B632",
"_$	c #F9BD38",
":$	c #F7C046",
"<$	c #D0A348",
"[$	c #A57D41",
"}$	c #774621",
"|$	c #713F1B",
"1$	c #76451F",
"2$	c #A37A3F",
"3$	c #D0A14A",
"4$	c #F7C047",
"5$	c #F8BB37",
"6$	c #F5B431",
"7$	c #F1AD2D",
"8$	c #ECA429",
"9$	c #E59A28",
"0$	c #DC9027",
"a$	c #D48626",
"b$	c #D58726",
"c$	c #DC9126",
"d$	c #E59B27",
"e$	c #EBA42A",
"f$	c #F1AC2C",
"g$	c #F5B22F",
"h$	c #F7B733",
"i$	c #F9BA35",
"j$	c #F9BF3C",
"k$	c #FBC34A",
"l$	c #F7C152",
"m$	c #F7C253",
"n$	c #FBC44C",
"o$	c #FABE3B",
"p$	c #F8BA34",
"q$	c #F3B12F",
"r$	c #EFAA2B",
"s$	c #E9A229",
"t$	c #E39828",
"u$	c #DB8F27",
"v$	c #D38426",
"w$	c #D48226",
"x$	c #D38527",
"y$	c #DB8F26",
"z$	c #E29726",
"A$	c #E89F27",
"B$	c #F0AB2B",
"C$	c #F3AF2D",
"D$	c #F4B22F",
"E$	c #F6B430",
"F$	c #F6B431",
"G$	c #F5B430",
"H$	c #F2AE2E",
"I$	c #E79E28",
"J$	c #E19527",
"K$	c #D98C27",
"L$	c #D18326",
"M$	c #D17F25",
"N$	c #CF8026",
"O$	c #D08225",
"P$	c #D88925",
"Q$	c #DE9125",
"R$	c #E39926",
"S$	c #E79D27",
"T$	c #E9A228",
"U$	c #ECA529",
"V$	c #EEA72A",
"W$	c #EEA829",
"X$	c #EEA82A",
"Y$	c #EDA72A",
"Z$	c #EAA128",
"`$	c #E69C27",
" %	c #E19626",
".%	c #D58826",
"+%	c #CE7F27",
"@%	c #CE7C26",
"#%	c #CD7D26",
"$%	c #D08226",
"%%	c #D88926",
"&%	c #DC8E25",
"*%	c #DF9326",
"=%	c #E29626",
"-%	c #E49826",
";%	c #E49A27",
">%	c #E39726",
",%	c #DB8D26",
"'%	c #CF8127",
")%	c #CB7B26",
"!%	c #CB7A26",
"~%	c #CD7F26",
"{%	c #D18226",
"]%	c #D58527",
"^%	c #D78826",
"/%	c #D68726",
"(%	c #D28527",
"_%	c #D18127",
":%	c #CD7D27",
"<%	c #CA7926",
"[%	c #CA7825",
"}%	c #C97827",
"|%	c #C87726",
"1%	c #C87826",
"2%	c #C97926",
"3%	c #C87626",
"4%	c #C87525",
"                                                                ",
"                                                                ",
"                      . + @ # $ % & @ * =                       ",
"                  - ; > , ' ' ) ! ! ' ~ { ] ^                   ",
"                / ( _ : < [ [ } } } [ < | 1 2 3                 ",
"            4 5 6 7 8 9 0 a b c d d e f g h i j k l             ",
"          m n o p q r s t u v w x y z t A B C D E F G           ",
"          H I J K L M N O P Q R R Q S T U V L W X Y Z           ",
"        `  ...+.@.#.$.%.&.*.=.-.-.;.>.&.,.'.).!.~.{.].^.        ",
"      /.(._.:.<.[.}.|.1.%.2.3.4.4.5.6.7.'.8.9.0.a.b.c.d.e.      ",
"      f.g.h.i.j.k.l.m.n.o.p.q.r.s.;.t.u.v.w.x.y.z.A.B.C.D.      ",
"    E.F.G.H.I.J.K.L.M.N.O.P.Q.s.R.;.S.T.U.V.W.X.Y.Z.`. +.+++    ",
"    @+#+$+%+&+*+=+-+;+>+,+'+)+!+~+{+]+^+/+(+_+:+<+[+}+|+1+2+    ",
"    3+4+5+6+7+8+9+0+a+b+c+d+e+f+g+h+i+j+k+l+m+n+o+p+q+r+s+t+    ",
"    u+v+w+x+y+z+A+B+C+D+E+F+G+H+I+J+K+L+M+N+O+P+Q+R+S+T+U+V+    ",
"    W+X+Y+Z+`+ @.@+@@@#@$@%@&@*@|.=@-@;@>@,@'@)@!@~@{@]@^@/@    ",
"    (@_@:@<@[@}@|@1@2@3@4@5@x.;@;@6@7@8@9@0@a@b@c@d@e@f@g@h@    ",
"    i@j@k@l@m@n@o@p@q@r@s@t@4@u@v@4@w@x@y@z@A@B@C@D@E@F@G@H@    ",
"    I@J@K@L@M@N@O@P@Q@R@*+S@T@U@V@W@X@9+Y@Z@c@`@ #.#+#@###$#    ",
"    %#&#*#=#-#;#>#,#'#)#!#~#{#]#]#^#~#/#(#_#:#<#[#}#|#1#2#3#    ",
"      4#5#6#7#8#9#0#a#b#c#d#e#f#g#h#i#j#k#l#m#n#o#p#q#r#s#t#    ",
"      u#v#w#x#y#z#A#B#C#D#E#F#G#G#H#I#J#K#L#M#N#O#P#Q#R#S#      ",
"      T#U#V#W#X#Y#Z#`# $.$+$@$#$$$%$&$*$=$-$;$Y#>$,$'$)$!$      ",
"        ~${$]$^$/$($_$:$<$[$}$|$|$1$2$3$4$5$6$7$8$9$0$a$        ",
"          b$c$d$e$f$g$h$i$j$k$l$m$n$o$p$($q$r$s$t$u$v$          ",
"          w$x$y$z$A$^$B$C$D$E$F$F$G$D$H$r$e$I$J$K$L$M$          ",
"            N$O$P$Q$R$S$T$U$V$W$X$Y$U$Z$`$ %0$.%+%@%            ",
"                #%$%%%&%*%=%-%;%i@>% %{$,%b$'%)%                ",
"                  !%!%~%{%]%~$~$^%/%(%_%:%<%[%                  ",
"                      }%|%1%2%2%2%}%|%3%4%                      ",
"                                                                ",
"                                                                "};
