/* XPM */
static char * exit_xpm[] = {
"32 32 540 2",
"  	c #191804",
". 	c #181704",
"+ 	c #131306",
"@ 	c #151506",
"# 	c #161505",
"$ 	c #161605",
"% 	c #151605",
"& 	c #151505",
"* 	c #171605",
"= 	c #171705",
"- 	c #171704",
"; 	c #181705",
"> 	c #181804",
", 	c #0D1008",
"' 	c #0E1107",
") 	c #0F1107",
"! 	c #0E1007",
"~ 	c #0F1007",
"{ 	c #101207",
"] 	c #111207",
"^ 	c #121306",
"/ 	c #121406",
"( 	c #131406",
"_ 	c #141406",
": 	c #0C0F08",
"< 	c #0C0E07",
"[ 	c #0B0E07",
"} 	c #0B0E06",
"| 	c #0C0F07",
"1 	c #0D0F07",
"2 	c #0C0E06",
"3 	c #0B0D06",
"4 	c #050702",
"5 	c #060A03",
"6 	c #080B04",
"7 	c #0A0E05",
"8 	c #0B0E05",
"9 	c #0A0D05",
"0 	c #070A03",
"a 	c #0E1105",
"b 	c #0D0F05",
"c 	c #090C05",
"d 	c #0D1104",
"e 	c #0C0F04",
"f 	c #0C0F05",
"g 	c #0D1005",
"h 	c #0D1004",
"i 	c #0B0F05",
"j 	c #0E1104",
"k 	c #060903",
"l 	c #090D04",
"m 	c #606B49",
"n 	c #8A946B",
"o 	c #879169",
"p 	c #848F66",
"q 	c #7D8B60",
"r 	c #455031",
"s 	c #833B20",
"t 	c #B15838",
"u 	c #B25738",
"v 	c #692914",
"w 	c #0E1103",
"x 	c #8D7C3F",
"y 	c #C0A963",
"z 	c #7D6E3A",
"A 	c #131504",
"B 	c #151703",
"C 	c #918040",
"D 	c #C1AE6A",
"E 	c #7D7138",
"F 	c #758462",
"G 	c #8DAB8F",
"H 	c #8EAC90",
"I 	c #8DAC8F",
"J 	c #8BAA8D",
"K 	c #83A587",
"L 	c #4E684F",
"M 	c #677150",
"N 	c #BBC793",
"O 	c #DCDCA2",
"P 	c #DFDA9E",
"Q 	c #DDDA9D",
"R 	c #DAD898",
"S 	c #ADA663",
"T 	c #84351C",
"U 	c #DF6B46",
"V 	c #FDA875",
"W 	c #F99765",
"X 	c #D4613E",
"Y 	c #732C14",
"Z 	c #C0A966",
"` 	c #FCDDA0",
" .	c #DFC485",
"..	c #857445",
"+.	c #968449",
"@.	c #E5CA85",
"#.	c #FADD98",
"$.	c #A6955A",
"%.	c #A4B084",
"&.	c #B3D8B6",
"*.	c #BCCA9B",
"=.	c #C8C280",
"-.	c #C5BF7C",
";.	c #C2BC77",
">.	c #BAB36C",
",.	c #696835",
"'.	c #636E4B",
").	c #BCC795",
"!.	c #DDDDA1",
"~.	c #BDB070",
"{.	c #534601",
"].	c #4F4301",
"^.	c #4C4101",
"/.	c #302B04",
"(.	c #823015",
"_.	c #DE6440",
":.	c #F8A16C",
"<.	c #C09352",
"[.	c #BD8950",
"}.	c #F38D5F",
"|.	c #D75F3B",
"1.	c #762C11",
"2.	c #C8AF74",
"3.	c #FEE1AA",
"4.	c #FDE1AA",
"5.	c #E3C78F",
"6.	c #E8CB8F",
"7.	c #FDDFA5",
"8.	c #FDDFA2",
"9.	c #AB9862",
"0.	c #A7B085",
"a.	c #AED7B3",
"b.	c #839D79",
"c.	c #473E02",
"d.	c #413902",
"e.	c #373202",
"f.	c #252404",
"g.	c #A2AF7F",
"h.	c #DCE6B1",
"i.	c #BAB579",
"j.	c #494001",
"k.	c #72794E",
"l.	c #939D6C",
"m.	c #929B6C",
"n.	c #5D5F36",
"o.	c #BF4F2E",
"p.	c #FE7C53",
"q.	c #D18953",
"r.	c #513E01",
"s.	c #4B3B02",
"t.	c #C96033",
"u.	c #FE7E55",
"v.	c #A44923",
"w.	c #CCB47A",
"x.	c #FDE1AD",
"y.	c #FEE1A9",
"z.	c #FEE0A8",
"A.	c #FDE1A8",
"B.	c #FDDFA4",
"C.	c #B6A163",
"D.	c #A7AE85",
"E.	c #AFD8B5",
"F.	c #A4C8A6",
"G.	c #97B897",
"H.	c #99BB99",
"I.	c #98BA99",
"J.	c #637F64",
"K.	c #0B0E04",
"L.	c #A7B284",
"M.	c #DDE6B1",
"N.	c #B4B176",
"O.	c #343104",
"P.	c #9F9D68",
"Q.	c #D2D99E",
"R.	c #D7E3AC",
"S.	c #98985C",
"T.	c #C35533",
"U.	c #FE8058",
"V.	c #E47A4F",
"W.	c #C25634",
"X.	c #C55834",
"Y.	c #E86E48",
"Z.	c #FE8159",
"`.	c #AA4E27",
" +	c #CCB77B",
".+	c #FDE0A8",
"++	c #EED18B",
"@+	c #F0D48B",
"#+	c #ECCF80",
"$+	c #EDD28A",
"%+	c #FBDF9E",
"&+	c #C2AA65",
"*+	c #9EA67A",
"=+	c #ADD6B3",
"-+	c #ADC098",
";+	c #BEB583",
">+	c #B9B17F",
",+	c #B5AB78",
"'+	c #726F47",
")+	c #979964",
"!+	c #D7DDA4",
"~+	c #C9CE91",
"{+	c #787945",
"]+	c #3E3907",
"^+	c #B4BB89",
"/+	c #DBE5B0",
"(+	c #8E8F58",
"_+	c #C45532",
":+	c #F19968",
"<+	c #E1A26E",
"[+	c #E0A16C",
"}+	c #EC8658",
"|+	c #AB5027",
"1+	c #CAB678",
"2+	c #FCDFA0",
"3+	c #C9AF69",
"4+	c #B29C56",
"5+	c #A69048",
"6+	c #CEB775",
"7+	c #FADF99",
"8+	c #C3AC64",
"9+	c #9DA578",
"0+	c #B1D6B4",
"a+	c #87A280",
"b+	c #4D420A",
"c+	c #423903",
"d+	c #373002",
"e+	c #1B1C04",
"f+	c #1C1D04",
"g+	c #AAA772",
"h+	c #DEE0A7",
"i+	c #CDCF92",
"j+	c #AEB47E",
"k+	c #CDD6A0",
"l+	c #DEE8B2",
"m+	c #91935B",
"n+	c #C04C28",
"o+	c #FC6C41",
"p+	c #C67E45",
"q+	c #403401",
"r+	c #3E3302",
"s+	c #BE4C25",
"t+	c #FD6F43",
"u+	c #A94920",
"v+	c #C0AE6C",
"w+	c #F9DF98",
"x+	c #C2AC63",
"y+	c #3C3302",
"z+	c #C8B472",
"A+	c #F7E197",
"B+	c #C1A961",
"C+	c #A3A779",
"D+	c #B6D8B8",
"E+	c #ABCDAC",
"F+	c #9FBD9D",
"G+	c #9FBE9D",
"H+	c #9BBB9A",
"I+	c #94B695",
"J+	c #6A886B",
"K+	c #141603",
"L+	c #3E3301",
"M+	c #BDB27E",
"N+	c #E5D9A4",
"O+	c #E9DCA4",
"P+	c #EBDFA5",
"Q+	c #E0D59A",
"R+	c #958C51",
"S+	c #A67644",
"T+	c #DDA167",
"U+	c #AA8748",
"V+	c #201F04",
"W+	c #1B1A03",
"X+	c #9C7746",
"Y+	c #D0A16E",
"Z+	c #89673D",
"`+	c #A8924F",
" @	c #DCC37D",
".@	c #BDA65D",
"+@	c #807029",
"@@	c #84732A",
"#@	c #C8B265",
"$@	c #E8CE81",
"%@	c #AD9750",
"&@	c #A6915D",
"*@	c #D9B799",
"=@	c #DDB99D",
"-@	c #DCB79D",
";@	c #DCB59A",
">@	c #DBB497",
",@	c #CBAF84",
"'@	c #7A773F",
")@	c #1C1605",
"!@	c #D09365",
"~@	c #FCB17E",
"{@	c #F9B07C",
"]@	c #F7B07D",
"^@	c #FBB786",
"/@	c #CA8C49",
"(@	c #5F4609",
"_@	c #568E6D",
":@	c #6CC8A4",
"<@	c #667D52",
"[@	c #161803",
"}@	c #171803",
"|@	c #5F9877",
"1@	c #7CD4B1",
"2@	c #5D805D",
"3@	c #BDA956",
"4@	c #E7CF71",
"5@	c #E5CC71",
"6@	c #E9CF78",
"7@	c #EBD379",
"8@	c #EBD17A",
"9@	c #E8CE6C",
"0@	c #AB9542",
"a@	c #A77955",
"b@	c #D458A8",
"c@	c #D9749B",
"d@	c #E29393",
"e@	c #E69794",
"f@	c #E18A97",
"g@	c #C25982",
"h@	c #6C2E2A",
"i@	c #CF8650",
"j@	c #FDB580",
"k@	c #E5BA7B",
"l@	c #BAA265",
"m@	c #BAA162",
"n@	c #E6AD73",
"o@	c #FDB07A",
"p@	c #A86F2F",
"q@	c #57997B",
"r@	c #62D3B4",
"s@	c #758C5D",
"t@	c #181A04",
"u@	c #181A06",
"v@	c #5D9E7F",
"w@	c #72DBBE",
"x@	c #668B68",
"y@	c #BCAA5C",
"z@	c #E6CF70",
"A@	c #C2A94E",
"B@	c #917D3B",
"C@	c #77641D",
"D@	c #614F06",
"E@	c #544402",
"F@	c #312A03",
"G@	c #9E6F4B",
"H@	c #D056A9",
"I@	c #C16D76",
"J@	c #968347",
"K@	c #988544",
"L@	c #D7A977",
"M@	c #D25CA9",
"N@	c #AA4A71",
"O@	c #D68F5A",
"P@	c #FDB783",
"Q@	c #D2A965",
"R@	c #453502",
"S@	c #423202",
"T@	c #D59562",
"U@	c #FDB47F",
"V@	c #AA7236",
"W@	c #5C9F7F",
"X@	c #69D8BD",
"Y@	c #709465",
"Z@	c #202E0F",
"`@	c #2A3F22",
" #	c #65AB8C",
".#	c #70DDC3",
"+#	c #678F6A",
"@#	c #AE9C4D",
"##	c #E9D277",
"$#	c #C2AB52",
"%#	c #8B772B",
"&#	c #93802B",
"*#	c #958227",
"=#	c #6F5E15",
"-#	c #1F1E02",
";#	c #9C6C41",
">#	c #CE56AB",
",#	c #B85976",
"'#	c #3B3202",
")#	c #67501D",
"!#	c #D39D75",
"~#	c #D45FAC",
"{#	c #AB4876",
"]#	c #DB8F5A",
"^#	c #FEB784",
"/#	c #CFA963",
"(#	c #302702",
"_#	c #2A2202",
":#	c #D99863",
"<#	c #A97536",
"[#	c #769A70",
"}#	c #81D4B2",
"|#	c #72DABE",
"1#	c #669168",
"2#	c #65A683",
"3#	c #73DDC2",
"4#	c #8DD0AA",
"5#	c #6F825B",
"6#	c #A29245",
"7#	c #E9D37C",
"8#	c #E8D079",
"9#	c #ECD37E",
"0#	c #EAD27A",
"a#	c #E9D176",
"b#	c #B59E51",
"c#	c #1D1D03",
"d#	c #9F764A",
"e#	c #D15AB2",
"f#	c #C25B85",
"g#	c #7C4335",
"h#	c #CA946F",
"i#	c #D979A4",
"j#	c #DAA090",
"k#	c #A2705A",
"l#	c #DF9158",
"m#	c #FDB886",
"n#	c #CFA663",
"o#	c #332A04",
"p#	c #322B0A",
"q#	c #DF9D65",
"r#	c #FDB681",
"s#	c #AB7B3D",
"t#	c #534B24",
"u#	c #8AA577",
"v#	c #86D8B7",
"w#	c #7CE2C8",
"x#	c #7AE1C7",
"y#	c #8FD2AD",
"z#	c #8B9561",
"A#	c #484211",
"B#	c #9A893E",
"C#	c #E6D072",
"D#	c #B9A145",
"E#	c #6B5603",
"F#	c #624F02",
"G#	c #5B4A03",
"H#	c #393003",
"I#	c #1D1D04",
"J#	c #9F7B4C",
"K#	c #D15AB0",
"L#	c #D370A1",
"M#	c #DF9B95",
"N#	c #D969B6",
"O#	c #CD6499",
"P#	c #844B35",
"Q#	c #1E1C03",
"R#	c #D78548",
"S#	c #FBB583",
"T#	c #CEA561",
"U#	c #483804",
"V#	c #443303",
"W#	c #E3A16B",
"X#	c #FCB374",
"Y#	c #A77B35",
"Z#	c #191A04",
"`#	c #514B23",
" $	c #8CA879",
".$	c #8BD9B7",
"+$	c #92D3B0",
"@$	c #909B66",
"#$	c #474114",
"$$	c #968638",
"%$	c #E7D071",
"&$	c #C2AB50",
"*$	c #87752C",
"=$	c #8A792C",
"-$	c #907D2B",
";$	c #887723",
">$	c #685912",
",$	c #987746",
"'$	c #C74D9B",
")$	c #B04971",
"!$	c #AA8E52",
"~$	c #D79486",
"{$	c #D35DAD",
"]$	c #BD4C89",
"^$	c #67242C",
"/$	c #61562E",
"($	c #DF9D68",
"_$	c #F7AF77",
":$	c #F9B074",
"<$	c #FBB477",
"[$	c #FCBB81",
"}$	c #C39A59",
"|$	c #55491F",
"1$	c #0F1103",
"2$	c #121503",
"3$	c #534D24",
"4$	c #869D6C",
"5$	c #9CA161",
"6$	c #4D481A",
"7$	c #131604",
"8$	c #131603",
"9$	c #8E7F39",
"0$	c #DEC772",
"a$	c #E1CA79",
"b$	c #E2C976",
"c$	c #E4CC76",
"d$	c #E6D076",
"e$	c #E6CF73",
"f$	c #B4A04C",
"g$	c #947F46",
"h$	c #D39874",
"i$	c #B17E55",
"j$	c #322B01",
"k$	c #978143",
"l$	c #D1997A",
"m$	c #D09C82",
"n$	c #A87754",
"o$	c #1A1804",
"p$	c #695E3A",
"q$	c #86784D",
"r$	c #86774F",
"s$	c #86784E",
"t$	c #877954",
"u$	c #5D5330",
"v$	c #1C1A03",
"w$	c #151504",
"x$	c #4D481B",
"y$	c #4F481A",
"z$	c #181904",
"A$	c #161604",
"B$	c #201C04",
"C$	c #423403",
"D$	c #453703",
"E$	c #453603",
"F$	c #423404",
"G$	c #3D3104",
"H$	c #3A3104",
"I$	c #2A2304",
"J$	c #201E03",
"K$	c #2A2403",
"L$	c #1F1C04",
"M$	c #1B1A04",
"N$	c #2B2603",
"O$	c #362F03",
"                                                                ",
"                                                                ",
"                                                                ",
".                                                               ",
"+ @ # $ $ % & $ $ $ * = - ; . . . . > > > > > > > > > > > . . . ",
", ' ) ) ) ! ! ! ~ ) ) { ] ] ^ ^ / ( ( ( ( ( _ _ _ _ _ ( ( ( ( ( ",
": : : < [ [ [ [ } [ [ [ < | [ [ : | 1 1 1 | | < | | | | | 2 2 3 ",
"4 5 6 7 8 8 9 6 0 0 9 a b 7 c c 8 d e 8 f g h 8 i j h h g e 9 k ",
"5 l m n o p q r 9 i s t u v w e x y z A B C D E F G H I I J K L ",
"c M N O P Q R S w T U V W X Y - Z `  ...+.@.#.$.%.&.*.=.-.;.>.,.",
"'.).!.~.{.].^./.(._.:.<.[.}.|.1.2.3.4.5.6.7.8.9.0.a.b.c.d.e.f.8 ",
"g.h.i.j.k.l.m.n.o.p.q.r.s.t.u.v.w.x.x.y.z.A.B.C.D.E.F.G.H.I.J.K.",
"L.M.N.O.P.Q.R.S.T.U.V.W.X.Y.Z.`. +.+++@+#+$+%+&+*+=+-+;+>+,+'+9 ",
")+!+~+{+]+^+/+(+_+p.:+<+[+}+p.|+1+2+3+4+5+6+7+8+9+0+a+b+c+d+e+f ",
"f+g+h+i+j+k+l+m+n+o+p+q+r+s+t+u+v+w+x+r+y+z+A+B+C+D+E+F+G+H+I+J+",
"K+L+M+N+O+P+Q+R+S+T+U+V+W+X+Y+Z+`+ @.@+@@@#@$@%@&@*@=@-@;@>@,@'@",
")@!@~@{@]@^@/@(@_@:@<@[@}@|@1@2@3@4@5@6@7@8@9@0@a@b@c@d@e@f@g@h@",
"i@j@k@l@m@n@o@p@q@r@s@t@u@v@w@x@y@z@A@B@C@D@E@F@G@H@I@J@K@L@M@N@",
"O@P@Q@R@S@T@U@V@W@X@Y@Z@`@ #.#+#@###$#%#&#*#=#-#;#>#,#'#)#!#~#{#",
"]#^#/#(#_#:#j@<#[#}#|#1#2#3#4#5#6#7#8#9#0#a#b#c#d#e#f#g#h#i#j#k#",
"l#m#n#o#p#q#r#s#t#u#v#w#x#y#z#A#B#C#D#E#F#G#H#I#J#K#L#M#N#O#P#Q#",
"R#S#T#U#V#W#X#Y#Z#`# $.$+$@$#$e+$$%$&$*$=$-$;$>$,$'$)$!$~${$]$^$",
"/$($_$:$<$[$}$|$1$2$3$4$5$6$7$8$9$0$a$b$c$d$e$f$g$h$i$j$k$l$m$n$",
"o$p$q$r$s$t$u$v$w$w$> x$y$z$A$A$B$C$D$E$F$G$H$I$J$K$L$M$J$N$O$M$",
"                                                                ",
"                                                                ",
"                                                                ",
"                                                                ",
"                                                                ",
"                                                                ",
"                                                                ",
"                                                                "};
