/* XPM */
static char * wall_xpm[] = {
"32 32 479 2",
"  	c #D16B43",
". 	c #CF6C43",
"+ 	c #D7886D",
"@ 	c #DFB0A6",
"# 	c #CA5529",
"$ 	c #CA542B",
"% 	c #CA542C",
"& 	c #C8562E",
"* 	c #E8CCC4",
"= 	c #EBCEC4",
"- 	c #CB542C",
"; 	c #DDB1A6",
"> 	c #CF877C",
", 	c #C3462B",
"' 	c #C3462A",
") 	c #D06B43",
"! 	c #D8846A",
"~ 	c #DEAFA6",
"{ 	c #C9552A",
"] 	c #C9552C",
"^ 	c #C9552B",
"/ 	c #E6C9C0",
"( 	c #D16C43",
"_ 	c #D06C43",
": 	c #E9CBC0",
"< 	c #CA552B",
"[ 	c #C9542C",
"} 	c #DCB0A6",
"| 	c #CE857A",
"1 	c #C4452B",
"2 	c #D16A44",
"3 	c #CF6B43",
"4 	c #D78569",
"5 	c #DEAFA4",
"6 	c #C95529",
"7 	c #E6C8BF",
"8 	c #D16A43",
"9 	c #D06A44",
"0 	c #D06B42",
"a 	c #E8CBC1",
"b 	c #CA5429",
"c 	c #DDB0A2",
"d 	c #CF8478",
"e 	c #C54528",
"f 	c #C44628",
"g 	c #C44627",
"h 	c #E9C7BB",
"i 	c #E8C8BC",
"j 	c #EDD0C5",
"k 	c #F0DCD4",
"l 	c #E6C3B8",
"m 	c #E7C3B8",
"n 	c #E5C3BB",
"o 	c #E6C2B9",
"p 	c #E7C0B7",
"q 	c #E7C1B8",
"r 	c #F6E6E0",
"s 	c #E9C5BA",
"t 	c #E9C6BA",
"u 	c #E9C8BE",
"v 	c #E9C8BA",
"w 	c #E9C8BC",
"x 	c #F5E9E1",
"y 	c #E5C4B9",
"z 	c #E7C2B8",
"A 	c #E6C2B5",
"B 	c #E5C4BD",
"C 	c #E6C3B6",
"D 	c #EFDCD4",
"E 	c #EACEC8",
"F 	c #E4C0B9",
"G 	c #E4BFB9",
"H 	c #D06E4C",
"I 	c #CE6C49",
"J 	c #CF6B49",
"K 	c #CE6C48",
"L 	c #DCA999",
"M 	c #CF8D89",
"N 	c #C0472F",
"O 	c #C66152",
"P 	c #E6C4B6",
"Q 	c #CD6C49",
"R 	c #CF6C4B",
"S 	c #E4CCBD",
"T 	c #CD6D47",
"U 	c #CD6D48",
"V 	c #DDA697",
"W 	c #D08D81",
"X 	c #C1472A",
"Y 	c #C55C47",
"Z 	c #E6BFB4",
"` 	c #D16B45",
" .	c #E5C7BF",
"..	c #DEA598",
"+.	c #D18C80",
"@.	c #C65C48",
"#.	c #E6BFB3",
"$.	c #D26B43",
"%.	c #D26A44",
"&.	c #D26A45",
"*.	c #EACAC1",
"=.	c #E8C9C0",
"-.	c #E9C8BF",
";.	c #E9CAC0",
">.	c #E9C9C0",
",.	c #F0DAD3",
"'.	c #E9D2CE",
").	c #E4C1BC",
"!.	c #E4C2B9",
"~.	c #E2C2BD",
"{.	c #E5C0BC",
"].	c #E4C1BD",
"^.	c #E6C8C3",
"/.	c #F3E2DE",
"(.	c #E9C8C0",
"_.	c #E7CAC1",
":.	c #EAC8BE",
"<.	c #E9C9BF",
"[.	c #F3E8E4",
"}.	c #EBC7C0",
"|.	c #E7C9C0",
"1.	c #E7C9BE",
"2.	c #EBC8BF",
"3.	c #A64837",
"4.	c #A54837",
"5.	c #B47266",
"6.	c #E2B8AC",
"7.	c #D0704E",
"8.	c #CF724C",
"9.	c #D0714D",
"0.	c #CF714D",
"a.	c #CD7150",
"b.	c #DFC9C1",
"c.	c #A8483A",
"d.	c #A9473A",
"e.	c #A94739",
"f.	c #A7483A",
"g.	c #A84839",
"h.	c #A84838",
"i.	c #E1C9C2",
"j.	c #B2553B",
"k.	c #B45339",
"l.	c #B55338",
"m.	c #B55337",
"n.	c #B55239",
"o.	c #B3543A",
"p.	c #D5B0A5",
"q.	c #D99C85",
"r.	c #CF714E",
"s.	c #A43E28",
"t.	c #A33F28",
"u.	c #B26960",
"v.	c #E1B6A7",
"w.	c #CF6B42",
"x.	c #DCC3C0",
"y.	c #A93E2C",
"z.	c #DDC5C1",
"A.	c #B44B29",
"B.	c #B64B2B",
"C.	c #B54B2B",
"D.	c #D4ADA6",
"E.	c #D89780",
"F.	c #A43D29",
"G.	c #A53D2A",
"H.	c #B1695E",
"I.	c #E2B5A7",
"J.	c #D16B44",
"K.	c #D06A43",
"L.	c #DDC4BD",
"M.	c #A83F2C",
"N.	c #A93E2D",
"O.	c #DDC4BF",
"P.	c #B54A2B",
"Q.	c #B54A2C",
"R.	c #B64A2A",
"S.	c #B64A2B",
"T.	c #B54B2A",
"U.	c #D5ADA4",
"V.	c #D99781",
"W.	c #D8BAB3",
"X.	c #DBC4BD",
"Y.	c #F1DDD3",
"Z.	c #E9C4B6",
"`.	c #E9C4B7",
" +	c #E9C3B7",
".+	c #E8C4BA",
"++	c #E8C4B8",
"@+	c #E8C4B7",
"#+	c #EFE5E0",
"$+	c #D9BAB3",
"%+	c #D9BBB3",
"&+	c #D9BAB5",
"*+	c #D7BAB7",
"=+	c #DAB8B4",
"-+	c #DABBB3",
";+	c #EFE5DE",
">+	c #DDBCB4",
",+	c #DCBEB2",
"'+	c #DDBEB2",
")+	c #E0BCB2",
"!+	c #D9BEB8",
"~+	c #DDBAB2",
"{+	c #DDBDB3",
"]+	c #EAD9D1",
"^+	c #EBD2C7",
"/+	c #E8C3B6",
"(+	c #E8C3B5",
"_+	c #D27453",
":+	c #D0714F",
"<+	c #D0724D",
"[+	c #D1714F",
"}+	c #D07150",
"|+	c #D1714E",
"1+	c #D1714D",
"2+	c #DEAC9D",
"3+	c #DBA48C",
"4+	c #D0724E",
"5+	c #D38267",
"6+	c #E6C5B7",
"7+	c #D0724F",
"8+	c #D1704F",
"9+	c #CF724F",
"0+	c #E8CBC4",
"a+	c #D07152",
"b+	c #CF724E",
"c+	c #DB9E86",
"d+	c #D37959",
"e+	c #E6C1B3",
"f+	c #E5C7C0",
"g+	c #D26A46",
"h+	c #D06B46",
"i+	c #D16A47",
"j+	c #DCA696",
"k+	c #DC9C85",
"l+	c #D3795C",
"m+	c #D16A46",
"n+	c #D26A43",
"o+	c #E3C8BD",
"p+	c #D16C42",
"q+	c #D16B42",
"r+	c #EDC8BF",
"s+	c #EBC7BD",
"t+	c #EBC6BD",
"u+	c #EAC7BE",
"v+	c #F0DAD2",
"w+	c #EED7CE",
"x+	c #E9C7BD",
"y+	c #ECCDC1",
"z+	c #F3E3DD",
"A+	c #EBC7BB",
"B+	c #EBC7BE",
"C+	c #EAC7BC",
"D+	c #EBC8BC",
"E+	c #EBC8BA",
"F+	c #F3E7E1",
"G+	c #EBC7BA",
"H+	c #EBC7BC",
"I+	c #E9C6BD",
"J+	c #ECC7BB",
"K+	c #D47A59",
"L+	c #D37A59",
"M+	c #DA9381",
"N+	c #D1B1AC",
"O+	c #AC5648",
"P+	c #AC5548",
"Q+	c #AA5849",
"R+	c #E7D0C8",
"S+	c #D47A5A",
"T+	c #D37B59",
"U+	c #D37A5A",
"V+	c #ECD2C8",
"W+	c #C75D4D",
"X+	c #C65C49",
"Y+	c #C85B48",
"Z+	c #DBB4A9",
"`+	c #DCA28E",
" @	c #D27B5A",
".@	c #D7866D",
"+@	c #CCACA3",
"@@	c #A43E29",
"#@	c #A33D28",
"$@	c #E4C8BF",
"%@	c #D06C42",
"&@	c #EACBC2",
"*@	c #C4452A",
"=@	c #C2462A",
"-@	c #DAACA3",
";@	c #D99780",
">@	c #D8866D",
",@	c #CDABA4",
"'@	c #E3C8C1",
")@	c #EACCC2",
"!@	c #C3462C",
"~@	c #DAACA5",
"{@	c #E8C2B6",
"]@	c #E5D7D4",
"^@	c #D5B8B3",
"/@	c #D4B8B1",
"(@	c #D4B8B2",
"_@	c #D5B8B2",
":@	c #F1E6E0",
"<@	c #E8C1B6",
"[@	c #E7C2B5",
"}@	c #E7C2B7",
"|@	c #E9C2B5",
"1@	c #F4E6E0",
"2@	c #E1BAB0",
"3@	c #E2B9B2",
"4@	c #E3B8B3",
"5@	c #E1B8B4",
"6@	c #E3B9B0",
"7@	c #E1B9B2",
"8@	c #EBD6D2",
"9@	c #EBD0C8",
"0@	c #E8C2B4",
"a@	c #D27A59",
"b@	c #D37856",
"c@	c #D47755",
"d@	c #D47855",
"e@	c #DFAD9D",
"f@	c #DDA596",
"g@	c #D37855",
"h@	c #D37755",
"i@	c #D27856",
"j@	c #D7876B",
"k@	c #EAC6B9",
"l@	c #D37756",
"m@	c #D37757",
"n@	c #D47757",
"o@	c #D47856",
"p@	c #D17856",
"q@	c #E7CFC5",
"r@	c #D47659",
"s@	c #D37857",
"t@	c #D37854",
"u@	c #DEA697",
"v@	c #D3795A",
"w@	c #D26B44",
"x@	c #D06B44",
"y@	c #D26B42",
"z@	c #DEA695",
"A@	c #DB9D88",
"B@	c #D47959",
"C@	c #D36B43",
"D@	c #D16C41",
"E@	c #E4C7BE",
"F@	c #D26B41",
"G@	c #D06C44",
"H@	c #E7C1B5",
"I@	c #E4C1BA",
"J@	c #E6C2BA",
"K@	c #E6C1BA",
"L@	c #ECD7CC",
"M@	c #EBD3CA",
"N@	c #E6C1B9",
"O@	c #E3C1B8",
"P@	c #E8C2B7",
"Q@	c #E8C2B8",
"R@	c #F2E2DA",
"S@	c #E3C1B9",
"T@	c #E6C2B8",
"U@	c #E5C2B7",
"V@	c #F2E6E0",
"W@	c #E7C2B6",
"X@	c #E7C1B6",
"Y@	c #E6C1B7",
"Z@	c #E5C2B4",
"`@	c #C86554",
" #	c #C86452",
".#	c #CE8477",
"+#	c #E4BFB3",
"@#	c #D48064",
"##	c #D48063",
"$#	c #D48062",
"%#	c #D58061",
"&#	c #D28165",
"*#	c #E9D0C8",
"=#	c #CC6E54",
"-#	c #CC6E55",
";#	c #CC6F54",
">#	c #CF6E54",
",#	c #CE6E55",
"'#	c #EAD2C7",
")#	c #D48267",
"!#	c #D57F63",
"~#	c #D58062",
"{#	c #D57F62",
"]#	c #D38064",
"^#	c #E3BFB3",
"/#	c #D3958B",
"(#	c #C86353",
"_#	c #C86354",
":#	c #C96452",
"<#	c #CB6E5F",
"[#	c #E1B5A9",
"}#	c #CF6A43",
"|#	c #E6C7BF",
"1#	c #E8CABF",
"2#	c #D06B45",
"3#	c #E1B7AA",
"4#	c #CF847A",
"5#	c #C4462A",
"6#	c #CB6D60",
"7#	c #E2B4A9",
"8#	c #E4C7BD",
"9#	c #CA552A",
"0#	c #C9562B",
"a#	c #E7CAC0",
"b#	c #E1B6A8",
"c#	c #CF8479",
"d#	c #DCB2AB",
"e#	c #DCB3AB",
"f#	c #E1BDB9",
"g#	c #EDDAD0",
"h#	c #E3BBB1",
"i#	c #E2BAAE",
"j#	c #E2BBAF",
"k#	c #E3BBB0",
"l#	c #E2BBB0",
"m#	c #F0E2DD",
"n#	c #DFB5AB",
"o#	c #DFB6AB",
"p#	c #DFB6AA",
"q#	c #DEB6A9",
"r#	c #E0B5AA",
"s#	c #E0B6AC",
"t#	c #F1E3DE",
"u#	c #E2BBB1",
"v#	c #E3BAB1",
"w#	c #E3BAB0",
"x#	c #E3BBAE",
"y#	c #ECD8D1",
"z#	c #E2C6BF",
"A#	c #DDB2AB",
"B#	c #DCB2AC",
"C#	c #DCB3A9",
"D#	c #D58268",
"E#	c #D47F65",
"F#	c #D57F64",
"G#	c #D47F64",
"H#	c #E0B2A3",
"I#	c #C39B91",
"J#	c #AD6054",
"K#	c #AE6055",
"L#	c #B4756A",
"M#	c #E7C8BF",
"N#	c #D37F64",
"O#	c #D37F65",
"P#	c #E9D0C6",
"Q#	c #DFA599",
"R#	c #BD8A81",
"S#	c #A43E26",
"T#	c #A53E26",
"U#	c #AC5546",
"V#	c #E4C8BC",
"W#	c #DEA698",
"X#	c #BD8B80",
"Y#	c #AA5647",
"Z#	c #E6C1B5",
"`#	c #E5BCB1",
" $	c #E4BAB1",
".$	c #E4BAB2",
"+$	c #EAD2CB",
"@$	c #DCC7C4",
"#$	c #CFAFAD",
"$$	c #CEB1AE",
"%$	c #D0B0AC",
"&$	c #D0B0AE",
"*$	c #D4B7B5",
"=$	c #EFE0D7",
"-$	c #E4BBB0",
";$	c #E4BBB1",
">$	c #E2BCB1",
",$	c #E3BBB3",
"'$	c #E3BCB1",
")$	c #E3BCB2",
"!$	c #F0E3DE",
"~$	c #E4BBAF",
"{$	c #E3BBAF",
"  . + @ # $ % % % % & *               = & % % % % % - ; > , ' ' ",
") . ! ~ { ] ] ] ] ] ^ / ( _ _ ) _ ) ) : < ] [ ] ] [ - } | 1 ' ' ",
"2 3 4 5 # 6 6 6 6 6 6 7 8 2 9 2 9 8 0 a ] 6 6 6 6 6 b c d e f g ",
"h i j k l m m n o p q r s s s t u v w x y m z A B C l D E F F G ",
"H I J J I I K L M N N N N N N O P K J I I I Q R S T I I I I I U ",
"_ _ _ _ _ _ _ V W X X X X X X Y Z _ _ _ _ _ ` )  .`   _ _ _ _ . ",
"              ..+.' ' ' ' ' ' @.#.$.        %.)  .&.          ) ",
"*.=.-.;.>.>.>.,.'.).!.~.{.].].^./.u (._.:.(.(.<.[.<.}.|.1.(.>.2.",
"3.4.5.6.7.7.7.8.9.0.a.b.c.d.e.d.f.g.h.i.j.k.k.l.m.n.o.p.q.r.7.r.",
"s.t.u.v.            w.x.y.y.y.y.y.y.y.z.A.B.B.B.B.B.C.D.E.%.    ",
"F.G.H.I.(     J.)   K.L.M.y.y.y.N.y.y.O.P.Q.R.Q.S.S.T.U.V.%.  %.",
"W.W.X.Y.Z.`. +.+++ +@+#+$+%+%+&+*+=+-+;+>+,+'+)+!+~+{+]+^+/+ +(+",
"_+:+<+[+}+|+1+2+3+1+4+1+[+|+|+5+6+:+|+9.7+8+8+9+0+a+[+|+7+:+1+b+",
"              V c+            d+e+          J.) f+g+          _ ",
"h+h+i+i+i+i+i+j+k+i+i+i+i+i+i+l+e+J.i+i+i+i+m+n+o+p+m+i+i+i+i+q+",
"r+s+t+u+s+s+s+v+w+s+t+x+t+s+s+y+z+A+A+B+C+s+D+E+F+G+H+I+A+H+s+J+",
"K+L+M+N+O+P+O+P+P+O+Q+R+S+L+L+K+T+U+U+V+W+X+X+X+X+X+Y+Z+`+ @L+T+",
"_ . .@+@@@s.s.s.s.s.#@$@_ _ %@_ %@_ ) &@' *@*@*@*@*@=@-@;@  _ %@",
"  _ >@,@s.s.s.s.s.s.#@'@              )@!@' ' ' ' ' *@~@E.%.    ",
"{@{@*.]@^@^@^@/@(@^@_@:@<@{@{@[@}@|@{@1@2@3@3@4@5@6@7@8@9@<@{@0@",
"a@b@c@c@d@c@d@e@f@d@g@h@i@b@b@j@k@l@b@m@n@b@o@p@q@r@s@t@g@b@b@b@",
"              u@c+            v@e+          w@_  .g+          J.",
"    x@y@y@$.$.z@A@$.$.%.q+q+q+B@e+( q+n+  $.C@D@E@n+F@  %.J.  G@",
"++C H@I@J@K@o L@M@N@q O@P@Q@Q@u R@}@Q@S@H@N@T@U@V@W@X@Y@Z@P@z o ",
"`@ #.#+#@###$#%#%###&#*#=#-#-#;#>#,#-#'#)#####!#~#{#]#^#/#(#_#:#",
"' ' <#[#            }#|#^ % % % % % % 1#G@          2#3#4#1 ' ' ",
"1 5#6#7#J.J.J.J.J.J.K.8#9#0#0#^ ] ^ 0#a#G@J.J.J.J.J.J.b#c#X 1 1 ",
"d#e#f#g#h#h#h#i#j#k#l#m#n#o#o#p#q#r#s#t#u#h#v#w#2@x#u#y#z#A#B#C#",
"D#E#F#F#!#F#G#H#I#J#K#J#K#K#J#L#M#N#F#F#F#!#G#O#P###!#F#F#F#F#@#",
")   J.J.J.J.J.Q#R#S#T#S#T#T#S#U#p &.J.J.J.J.J.F@V#p+$.J.J.J.J.$.",
"              W#X#s.s.s.s.s.s.Y#Z#w@        w@_  .g+            ",
"`#h# $h#.$.$.$+$@$#$#$$$%$&$&$*$=$-$;$>$,$'$)$u#!$~$v#{$w#k#;$~$"};
